{"title":"Twilight.Eclipse.Dark.2010.CAM.(ENG)Innocence.Group.Release","uid":5664003,"size":837952752,"categoryP":"video","categoryS":"movies","magnet":"?xt=urn:btih:3135fd8e257a134c4819311b9acd63020fc34cd2&amp;dn=Twilight.Eclipse.Dark.2010.CAM.%28ENG%29Innocence.Group.Release&amp;tr=udp%3A%2F%2Ftracker.openbittorrent.com%3A80&amp;tr=udp%3A%2F%2Fopen.demonii.com%3A1337&amp;tr=udp%3A%2F%2Ftracker.coppersurfer.tk%3A6969&amp;tr=udp%3A%2F%2Fexodus.desync.com%3A6969","seeders":0,"leechers":0,"uploader":"YoCkNeR-BeNzO","files":3,"time":1278030340,"description":"Plot\n\nBella once again finds herself surrounded by danger as Seattle is ravaged by a string of mysterious killings and a malicious vampire continues her quest for revenge. In the midst of it all, she is forced to choose between her love for Edward and her friendship with Jacob -- knowing that her decision has the potential to ignite the struggle between vampire and werewolf. With her graduation quickly approaching, Bella is confronted with the most important decision of her life.\n\n\n\nMovie Info\n  &lt;a href=&quot;\nhttp://www.imdb.com/title/tt1325004/&quot; rel=&quot;nofollow&quot; target=&quot;_NEW&quot;&gt;\nhttp://www.imdb.com/title/tt1325004/&lt;/a&gt;\nMOVIEmeter: Up 200% in popularity this week.\nGenre:Fantasy | Romance | Thriller\n\n\n\nVideo\n\n\nID : 0\nFormat : MPEG-4 Visual\nFormat profile : Advanced Simple@L5\nFormat settings, BVOP : No\nFormat settings, QPel : No\nFormat settings, GMC : No warppoints\nFormat settings, Matrix : Default (H.263)\nCodec ID : XVID\nCodec ID/Hint : XviD\nDuration : 1h 58mn\nBit rate : 792 Kbps\nWidth : 352 pixels\nHeight : 264 pixels\nDisplay aspect ratio : 4:3\nFrame rate : 29.970 fps\nResolution : 8 bits\nColorimetry : 4:2:0\nScan type : Progressive\nBits/(Pixel*Frame) : 0.284\nStream size : 673 MiB (85%)\nWriting library : XviD 1.1.2 (UTC 2006-11-01)\n\n\n\nAudio\n\n\nID : 1\nFormat : MPEG Audio\nFormat version : Version 1\nFormat profile : Layer 3\nCodec ID : 55\nCodec ID/Hint : MP3\nDuration : 1h 58mn\nBit rate mode : Constant\nBit rate : 128 Kbps\nChannel(s) : 2 channels\nSampling rate : 44.1 KHz\nStream size : 109 MiB (14%)\nAlignment : Split accross interleaves\nInterleave, duration : 67 ms (2.00 video frame\n\n\n\nScreenshots\n\n &lt;a href=&quot;\nhttp://postimg.com/image/18000/17311.jpg&quot; rel=&quot;nofollow&quot; target=&quot;_NEW&quot;&gt;\nhttp://postimg.com/image/18000/17311.jpg&lt;/a&gt;\n &lt;a href=&quot;\nhttp://postimg.com/image/18000/17312.jpg&quot; rel=&quot;nofollow&quot; target=&quot;_NEW&quot;&gt;\nhttp://postimg.com/image/18000/17312.jpg&lt;/a&gt;\n &lt;a href=&quot;\nhttp://postimg.com/image/18000/17318.jpg&quot; rel=&quot;nofollow&quot; target=&quot;_NEW&quot;&gt;\nhttp://postimg.com/image/18000/17318.jpg&lt;/a&gt;\n &lt;a href=&quot;\nhttp://postimg.com/image/18000/17319.jpg&quot; rel=&quot;nofollow&quot; target=&quot;_NEW&quot;&gt;\nhttp://postimg.com/image/18000/17319.jpg&lt;/a&gt;\n &lt;a href=&quot;\nhttp://postimg.com/image/18000/17320.jpg&quot; rel=&quot;nofollow&quot; target=&quot;_NEW&quot;&gt;\nhttp://postimg.com/image/18000/17320.jpg&lt;/a&gt;","torrent":{"xt":"urn:btih:3135fd8e257a134c4819311b9acd63020fc34cd2","amp;dn":"Twilight.Eclipse.Dark.2010.CAM.%28ENG%29Innocence.Group.Release","amp;tr":["udp%3A%2F%2Ftracker.openbittorrent.com%3A80","udp%3A%2F%2Fopen.demonii.com%3A1337","udp%3A%2F%2Ftracker.coppersurfer.tk%3A6969","udp%3A%2F%2Fexodus.desync.com%3A6969"],"infoHash":"3135fd8e257a134c4819311b9acd63020fc34cd2","infoHashBuffer":{"type":"Buffer","data":[49,53,253,142,37,122,19,76,72,25,49,27,154,205,99,2,15,195,76,210]},"announce":[],"urlList":[]}}